<?xml version="1.0" encoding="utf-8"?>
<!-- Generator: Adobe Illustrator 22.0.1, SVG Export Plug-In . SVG Version: 6.00 Build 0)  -->
<svg version="1.1" id="Слой_1" xmlns="http://www.w3.org/2000/svg" xmlns:xlink="http://www.w3.org/1999/xlink" x="0px" y="0px"
	 viewBox="0 0 60.7 36.6" style="enable-background:new 0 0 60.7 36.6;" xml:space="preserve">
<style type="text/css">
	.st0{fill:url(#SVGID_1_);}
	.st1{fill:url(#SVGID_2_);}
	.st2{fill:url(#SVGID_3_);}
	.st3{fill:url(#SVGID_4_);}
	.st4{fill:url(#SVGID_5_);}
	.st5{fill:url(#SVGID_6_);}
	.st6{fill:url(#SVGID_7_);}
	.st7{fill:url(#SVGID_8_);}
	.st8{fill:url(#SVGID_9_);}
	.st9{fill:url(#SVGID_10_);}
	.st10{fill:url(#SVGID_11_);}
	.st11{fill:url(#SVGID_12_);}
	.st12{fill:url(#SVGID_13_);}
	.st13{fill:url(#SVGID_14_);}
</style>
<g>
	<linearGradient id="SVGID_1_" gradientUnits="userSpaceOnUse" x1="-15.7465" y1="13.5659" x2="70.5869" y2="47.0659">
		<stop  offset="0" style="stop-color:#2A55FF"/>
		<stop  offset="1" style="stop-color:#A300FF"/>
	</linearGradient>
	<polygon class="st0" points="19.8,36.6 23.5,36.6 32.5,25.4 32.5,24.4 30.7,22.3 	"/>
	<linearGradient id="SVGID_2_" gradientUnits="userSpaceOnUse" x1="-10.5138" y1="8.080839e-02" x2="75.8195" y2="33.5808">
		<stop  offset="0" style="stop-color:#2A55FF"/>
		<stop  offset="1" style="stop-color:#A300FF"/>
	</linearGradient>
	<polygon class="st1" points="16.1,8.1 14.2,11.2 23.3,11.2 32.5,22.5 32.5,17.2 25,8.1 	"/>
	<linearGradient id="SVGID_3_" gradientUnits="userSpaceOnUse" x1="-13.5806" y1="7.9842" x2="72.7528" y2="41.4842">
		<stop  offset="0" style="stop-color:#2A55FF"/>
		<stop  offset="1" style="stop-color:#A300FF"/>
	</linearGradient>
	<polygon class="st2" points="13.5,27.3 11.2,24.8 8.2,27.1 3.9,21.7 16.4,5.8 12.2,1.1 7.8,3.8 0.6,0 8.5,6.9 11.2,5.2 12.3,6.6 
		0.6,21.3 8.2,30.5 10.9,27.9 10.8,32.9 16.7,36.6 13.1,32.1 	"/>
	<linearGradient id="SVGID_4_" gradientUnits="userSpaceOnUse" x1="-11.4928" y1="2.6038" x2="74.8405" y2="36.1038">
		<stop  offset="0" style="stop-color:#2A55FF"/>
		<stop  offset="1" style="stop-color:#A300FF"/>
	</linearGradient>
	<polygon class="st3" points="7.6,11 9.6,8.2 4.3,8.1 0,6 3.5,11 	"/>
	<linearGradient id="SVGID_5_" gradientUnits="userSpaceOnUse" x1="-12.9397" y1="6.3326" x2="73.3936" y2="39.8326">
		<stop  offset="0" style="stop-color:#2A55FF"/>
		<stop  offset="1" style="stop-color:#A300FF"/>
	</linearGradient>
	<polygon class="st4" points="10.7,17.6 13.5,16.3 12.6,14.2 10.3,17.1 	"/>
	<linearGradient id="SVGID_6_" gradientUnits="userSpaceOnUse" x1="-11.1056" y1="1.6058" x2="75.2278" y2="35.1058">
		<stop  offset="0" style="stop-color:#2A55FF"/>
		<stop  offset="1" style="stop-color:#A300FF"/>
	</linearGradient>
	<path class="st5" d="M46.2,16.3c-0.7-0.8-2.2-1.2-4.6-1.2c-0.2,0-0.4,0-0.7,0c-0.2,0-0.4,0-0.6,0c-2.7,0-4.3,0.4-5,1.2
		c-0.4,0.5-0.7,1.5-0.9,2.9h3.7c0.1-0.7,0.2-1.1,0.3-1.3c0.2-0.4,1-0.6,2.3-0.6c1.2,0,2,0.2,2.2,0.6c0.3,0.4,0.4,1.7,0.4,3.9
		c0,2.2-0.2,3.5-0.5,3.9c-0.3,0.4-1,0.6-2.2,0.6c-1.2,0-2-0.2-2.3-0.6c-0.3-0.4-0.5-1.5-0.5-3.4c0-0.3,0-1.2,0-1.5h-3.8
		c0,0.3,0,1.1,0,1.4c0,2.6,0.3,4.3,1,5.1c0.7,0.8,2.2,1.2,4.6,1.2c0.2,0,0.4,0,0.6,0c0.2,0,0.4,0,0.6,0c2.6,0,4.3-0.4,5-1.2
		c0.7-0.8,1-2.7,1-5.7C47.2,18.8,46.9,17.1,46.2,16.3z"/>
	<linearGradient id="SVGID_7_" gradientUnits="userSpaceOnUse" x1="-8.4789" y1="-5.1633" x2="77.8544" y2="28.3367">
		<stop  offset="0" style="stop-color:#2A55FF"/>
		<stop  offset="1" style="stop-color:#A300FF"/>
	</linearGradient>
	<polygon class="st6" points="53,17 51.8,15.2 46.7,15.2 50.4,20.7 	"/>
	<linearGradient id="SVGID_8_" gradientUnits="userSpaceOnUse" x1="-9.3991" y1="-2.7919" x2="76.9342" y2="30.7081">
		<stop  offset="0" style="stop-color:#2A55FF"/>
		<stop  offset="1" style="stop-color:#A300FF"/>
	</linearGradient>
	<polygon class="st7" points="56.2,21.8 60.7,15.2 55.7,15.2 54.1,17.6 50.7,22.6 46.8,28.2 51.9,28.2 53.7,25.6 55.5,28.2 
		60.6,28.2 	"/>
	<linearGradient id="SVGID_9_" gradientUnits="userSpaceOnUse" x1="-16.8396" y1="16.383" x2="69.4938" y2="49.883">
		<stop  offset="0" style="stop-color:#2A55FF"/>
		<stop  offset="1" style="stop-color:#A300FF"/>
	</linearGradient>
	<path class="st8" d="M31.1,34.8c-0.4,0-0.7-0.1-0.8-0.1c-0.1-0.1-0.1-0.2-0.1-0.5c0-0.2,0.1-0.4,0.2-0.4c0.1-0.1,0.4-0.1,0.7-0.1
		c0.3,0,0.5,0,0.6,0.1c0.1,0.1,0.1,0.2,0.1,0.5h0.4c0-0.4-0.1-0.6-0.2-0.7c-0.1-0.1-0.5-0.2-0.9-0.2c-0.5,0-0.8,0.1-0.9,0.2
		c-0.2,0.1-0.2,0.4-0.2,0.7c0,0.5,0.3,0.8,0.8,0.8l0.4,0l0.4,0c0.2,0,0.3,0.1,0.4,0.1c0.1,0.1,0.1,0.2,0.1,0.4c0,0.3,0,0.5-0.1,0.6
		c-0.1,0.1-0.3,0.1-0.8,0.1c-0.4,0-0.6,0-0.7-0.1c-0.1-0.1-0.1-0.2-0.1-0.5v-0.1h-0.4l0,0.1c0,0.4,0.1,0.6,0.2,0.7
		c0.2,0.1,0.5,0.2,0.9,0.2c0.5,0,0.9-0.1,1-0.2c0.2-0.1,0.2-0.4,0.2-0.8c0-0.4-0.1-0.6-0.2-0.7C32,34.9,31.6,34.8,31.1,34.8z"/>
	<linearGradient id="SVGID_10_" gradientUnits="userSpaceOnUse" x1="-16.0358" y1="14.3115" x2="70.2976" y2="47.8115">
		<stop  offset="0" style="stop-color:#2A55FF"/>
		<stop  offset="1" style="stop-color:#A300FF"/>
	</linearGradient>
	<path class="st9" d="M36.9,34.5l-0.1,0.2l-0.1,0.1c0,0,0,0.1-0.1,0.1h0l-0.1-0.1c0,0,0-0.1-0.1-0.1l-0.1-0.2l-0.7-1.1h-0.4l1.2,1.9
		v1.3h0.4v-1.3l1.2-1.9h-0.4L36.9,34.5z"/>
	<linearGradient id="SVGID_11_" gradientUnits="userSpaceOnUse" x1="-15.3886" y1="12.6438" x2="70.9447" y2="46.1438">
		<stop  offset="0" style="stop-color:#2A55FF"/>
		<stop  offset="1" style="stop-color:#A300FF"/>
	</linearGradient>
	<path class="st10" d="M42.2,34.8c-0.4,0-0.7-0.1-0.8-0.1c-0.1-0.1-0.1-0.2-0.1-0.5c0-0.2,0.1-0.4,0.2-0.4c0.1-0.1,0.4-0.1,0.7-0.1
		c0.3,0,0.5,0,0.6,0.1c0.1,0.1,0.1,0.2,0.1,0.5h0.4c0-0.4-0.1-0.6-0.2-0.7c-0.1-0.1-0.5-0.2-0.9-0.2c-0.5,0-0.8,0.1-0.9,0.2
		c-0.2,0.1-0.2,0.4-0.2,0.7c0,0.5,0.3,0.8,0.8,0.8l0.4,0l0.4,0c0.2,0,0.3,0.1,0.4,0.1c0.1,0.1,0.1,0.2,0.1,0.4c0,0.3,0,0.5-0.1,0.6
		c-0.1,0.1-0.3,0.1-0.8,0.1c-0.4,0-0.6,0-0.7-0.1c-0.1-0.1-0.1-0.2-0.1-0.5v-0.1H41l0,0.1c0,0.4,0.1,0.6,0.2,0.7
		c0.2,0.1,0.5,0.2,0.9,0.2c0.5,0,0.9-0.1,1-0.2c0.2-0.1,0.2-0.4,0.2-0.8c0-0.4-0.1-0.6-0.2-0.7C43,34.9,42.7,34.8,42.2,34.8z"/>
	<linearGradient id="SVGID_12_" gradientUnits="userSpaceOnUse" x1="-14.6088" y1="10.6341" x2="71.7245" y2="44.1341">
		<stop  offset="0" style="stop-color:#2A55FF"/>
		<stop  offset="1" style="stop-color:#A300FF"/>
	</linearGradient>
	<polygon class="st11" points="46.4,33.7 47.4,33.7 47.4,36.6 47.8,36.6 47.8,33.7 48.8,33.7 48.8,33.4 46.4,33.4 	"/>
	<linearGradient id="SVGID_13_" gradientUnits="userSpaceOnUse" x1="-13.9844" y1="9.0248" x2="72.349" y2="42.5248">
		<stop  offset="0" style="stop-color:#2A55FF"/>
		<stop  offset="1" style="stop-color:#A300FF"/>
	</linearGradient>
	<polygon class="st12" points="51.9,36.6 53.9,36.6 53.9,36.3 52.2,36.3 52.2,35.1 53.8,35.1 53.8,34.8 52.2,34.8 52.2,33.7 
		53.9,33.7 53.9,33.4 51.9,33.4 	"/>
	<linearGradient id="SVGID_14_" gradientUnits="userSpaceOnUse" x1="-13.1868" y1="6.9693" x2="73.1466" y2="40.4693">
		<stop  offset="0" style="stop-color:#2A55FF"/>
		<stop  offset="1" style="stop-color:#A300FF"/>
	</linearGradient>
	<path class="st13" d="M59.3,35.4l-0.1,0.3c0,0,0,0.1-0.1,0.2L59,36.1h0l-0.1-0.2l-0.1-0.2l-0.1-0.3l-0.8-2.1h-0.6v3.2h0.4V34v-0.2
		l0-0.1l0-0.1h0c0,0,0,0.1,0,0.1l0,0.1l0.1,0.1l1.1,2.6h0.4l1.1-2.6l0.1-0.1c0,0,0,0,0-0.1l0-0.1h0l0,0.1l0,0.1V34v2.5h0.4v-3.2
		h-0.6L59.3,35.4z"/>
</g>
<image style="overflow:visible;" width="1920" height="1080" xlink:href="9026A4F6.jpg"  transform="matrix(1 0 0 1 110.4486 -339.0093)">
</image>
</svg>
